<svg width="24" height="24" viewBox="0 0 24 24" fill="none" xmlns="http://www.w3.org/2000/svg">
<path d="M19.9977 12.1335L20 12.1341L19.9767 12.2974C19.8513 12.2682 19.3703 12.1633 18.8805 12.1574C18.4315 12.1516 17.828 12.2391 17.5743 12.2741L17.5743 12.2741C17.5598 12.3207 17.5452 12.3673 17.5277 12.414C17.895 12.3848 18.3703 12.3353 18.6706 12.344C19.2828 12.3586 19.8659 12.5364 19.93 12.5539L19.9067 12.7405C19.8717 12.7318 19.242 12.5452 18.6472 12.5306C18.3353 12.5219 17.8047 12.5714 17.4577 12.6006C16.9504 13.8017 15.7493 14.656 13.8192 14.9329C14.5044 15.4548 14.9854 16.5044 14.9854 17.312V18.5948L14.2391 18.8513V17.895C14.2391 17.688 14.0729 17.5219 13.8659 17.5219C13.6589 17.5219 13.4927 17.688 13.4927 17.895V19.0379L12.7464 19.1312V17.4519C12.7464 17.2449 12.5802 17.0787 12.3732 17.0787C12.1662 17.0787 12 17.2449 12 17.4519V19.1778L11.2536 19.1312V17.895C11.2536 17.688 11.0875 17.5219 10.8805 17.5219C10.6735 17.5219 10.5073 17.688 10.5073 17.895V19.0379L9.76093 18.8513V17.312C9.76093 17.2391 9.77551 17.1545 9.78426 17.0787H8.6414C8.02915 17.0787 7.48397 16.8222 7.21866 16.3324C6.9242 15.7872 6.63848 15.1633 5.91254 14.6531C5.78426 14.5656 5.85131 14.4402 6.09913 14.4665C6.34694 14.4956 6.81341 14.5364 7.17201 15.0029L7.17969 15.013C7.53345 15.4799 7.93191 16.0058 8.59475 16.0058C9.24781 16.0058 9.94752 16.035 10.3207 15.586C10.3265 15.5773 10.3382 15.5714 10.344 15.5627C10.5102 15.3149 10.7114 15.0991 10.9271 14.9329C9.02332 14.6589 7.8309 13.8222 7.31195 12.6472C7.08746 12.6297 6.60933 12.6035 6.0758 12.6006C5.85423 12.6006 5.64723 12.6064 5.49271 12.6239C4.84548 12.6997 4.33236 12.9854 4.18659 13.0671L4.13994 12.8805C4.32945 12.7755 4.81341 12.516 5.46939 12.4373C6.00583 12.3732 6.8484 12.4286 7.24198 12.4606C7.21574 12.3907 7.19242 12.3207 7.17201 12.2507C7.05248 12.242 5.85714 12.1341 5.46939 12.1341C5.10496 12.1341 4.4344 12.2245 4.02332 12.3207L4 12.1341C4.42857 12.0321 5.0758 11.9475 5.46939 11.9475C5.86297 11.9475 6.85714 12.0204 7.10204 12.0408C7.03499 11.7493 7.00875 11.4286 7.00875 11.1079C7.00875 10.2362 7.34985 9.39359 7.94169 8.68222C8.74978 7.76407 9.30427 7.45172 10.3207 7.04956C10.9504 6.82799 11.6501 6.72303 12.3732 6.72303C13.1137 6.72303 13.8076 6.83965 14.449 7.07289C14.5948 6.88921 15.3819 6 16.7813 6C17.3528 6.57143 17.0612 8.06997 16.8513 8.72886C17.4169 9.42857 17.7376 10.2566 17.7376 11.1079C17.7376 11.449 17.6735 11.7784 17.5977 12.0875C17.8863 12.0408 18.4286 11.965 18.8805 11.9708C19.3823 11.9766 19.8466 12.095 19.9977 12.1335Z" fill="#8C8C8C"/>
<path d="M16.7816 6C17.353 6.57143 17.0615 8.06997 16.8516 8.72886C16.1054 7.91094 15.5909 7.5123 14.4492 7.07289C14.595 6.88921 15.3822 6 16.7816 6Z" fill="#8C8C8C"/>
<path d="M10.3195 15.586C10.3254 15.5772 10.337 15.5714 10.3429 15.5626C9.50983 16.5526 9.97011 16.4724 9.78308 17.0787H8.64023C8.02798 17.0787 7.48279 16.8221 7.21749 16.3323C6.92303 15.7871 6.63731 15.1632 5.91136 14.653C5.78308 14.5656 5.85014 14.4402 6.09795 14.4664C6.34577 14.4956 6.81224 14.5364 7.17084 15.0029C7.52653 15.4723 7.92594 16.0058 8.59358 16.0058C9.24664 16.0058 9.94635 16.0349 10.3195 15.586Z" fill="#8C8C8C"/>
<path d="M8.05919 6C9.4003 6 10.1729 6.81341 10.3682 7.04956C9.3518 7.45172 8.79731 7.76407 7.98922 8.68222C7.77931 8.00292 7.49943 6.55977 8.05919 6Z" fill="#8C8C8C"/>
<circle cx="12" cy="12" r="10.25" stroke="#8C8C8C" stroke-width="1.5"/>
</svg>
