<svg width="24" height="25" viewBox="0 0 24 25" fill="none" xmlns="http://www.w3.org/2000/svg">
<g clip-path="url(#clip0_354_466)">
<path d="M23.0569 16.0361L21.3024 14.5361C21.3854 14.0272 21.4283 13.5076 21.4283 12.9879C21.4283 12.4683 21.3854 11.9486 21.3024 11.4397L23.0569 9.9397C23.1892 9.82641 23.2839 9.67553 23.3284 9.5071C23.3729 9.33868 23.3651 9.16071 23.306 8.99684L23.2819 8.9272C22.7989 7.57727 22.0756 6.32586 21.147 5.23345L21.0988 5.1772C20.9862 5.04475 20.836 4.94954 20.6682 4.90411C20.5004 4.85869 20.3227 4.86518 20.1586 4.92273L17.981 5.69684C17.1774 5.03791 16.2801 4.51827 15.3104 4.15398L14.8899 1.8772C14.8582 1.70588 14.7751 1.54828 14.6516 1.42532C14.5282 1.30236 14.3703 1.21987 14.1988 1.1888L14.1265 1.17541C12.731 0.923626 11.2631 0.923626 9.86757 1.17541L9.79525 1.1888C9.62381 1.21987 9.46588 1.30236 9.34245 1.42532C9.21901 1.54828 9.13591 1.70588 9.10418 1.8772L8.68096 4.1647C7.71906 4.52906 6.82328 5.04843 6.02918 5.7022L3.83543 4.92273C3.67141 4.86472 3.49362 4.85799 3.32568 4.90345C3.15775 4.9489 3.00762 5.04438 2.89525 5.1772L2.84703 5.23345C1.91957 6.32664 1.19643 7.57783 0.712212 8.9272L0.688105 8.99684C0.56757 9.33166 0.666677 9.70666 0.937213 9.9397L2.71311 11.4558C2.63007 11.9593 2.58989 12.4736 2.58989 12.9852C2.58989 13.4995 2.63007 14.0138 2.71311 14.5147L0.937213 16.0308C0.80488 16.1441 0.710167 16.2949 0.66567 16.4634C0.621172 16.6318 0.628997 16.8098 0.688105 16.9736L0.712212 17.0433C1.19703 18.3933 1.91489 19.6388 2.84703 20.737L2.89525 20.7933C3.00789 20.9257 3.15803 21.0209 3.32586 21.0664C3.4937 21.1118 3.67136 21.1053 3.83543 21.0477L6.02918 20.2683C6.82739 20.9245 7.71936 21.4442 8.68096 21.8058L9.10418 24.0933C9.13591 24.2646 9.21901 24.4222 9.34245 24.5452C9.46588 24.6681 9.62381 24.7506 9.79525 24.7817L9.86757 24.7951C11.2759 25.0482 12.7181 25.0482 14.1265 24.7951L14.1988 24.7817C14.3703 24.7506 14.5282 24.6681 14.6516 24.5452C14.7751 24.4222 14.8582 24.2646 14.8899 24.0933L15.3104 21.8165C16.2797 21.4532 17.1821 20.9318 17.981 20.2736L20.1586 21.0477C20.3227 21.1057 20.5005 21.1125 20.6684 21.067C20.8363 21.0216 20.9865 20.9261 21.0988 20.7933L21.147 20.737C22.0792 19.6361 22.797 18.3933 23.2819 17.0433L23.306 16.9736C23.4265 16.6442 23.3274 16.2692 23.0569 16.0361ZM19.4006 11.7558C19.4676 12.1602 19.5024 12.5754 19.5024 12.9906C19.5024 13.4058 19.4676 13.8209 19.4006 14.2254L19.2238 15.2995L21.2247 17.0111C20.9214 17.7099 20.5385 18.3714 20.0836 18.9826L17.5979 18.1013L16.7569 18.7924C16.1167 19.3174 15.4042 19.7299 14.6327 20.0192L13.6122 20.4022L13.1327 23.0004C12.3762 23.0861 11.6125 23.0861 10.856 23.0004L10.3765 20.3968L9.364 20.0084C8.60061 19.7192 7.89078 19.3067 7.25596 18.7843L6.41489 18.0906L3.91311 18.9799C3.45775 18.3665 3.07739 17.7049 2.77203 17.0084L4.79436 15.2808L4.62025 14.2093C4.55596 13.8102 4.52114 13.3977 4.52114 12.9906C4.52114 12.5808 4.55328 12.1709 4.62025 11.7718L4.79436 10.7004L2.77203 8.97273C3.07471 8.27363 3.45775 7.6147 3.91311 7.0013L6.41489 7.89059L7.25596 7.19684C7.89078 6.67452 8.60061 6.26202 9.364 5.97273L10.3792 5.5897L10.8586 2.98613C11.6113 2.90041 12.3801 2.90041 13.1354 2.98613L13.6149 5.58434L14.6354 5.96738C15.4042 6.25666 16.1194 6.66916 16.7595 7.19416L17.6006 7.88523L20.0863 7.00398C20.5417 7.61738 20.922 8.27898 21.2274 8.97541L19.2265 10.687L19.4006 11.7558ZM11.9997 8.00845C9.39614 8.00845 7.28543 10.1192 7.28543 12.7227C7.28543 15.3263 9.39614 17.437 11.9997 17.437C14.6033 17.437 16.714 15.3263 16.714 12.7227C16.714 10.1192 14.6033 8.00845 11.9997 8.00845ZM14.1211 14.8442C13.8429 15.1232 13.5122 15.3445 13.1481 15.4953C12.7841 15.646 12.3938 15.7233 11.9997 15.7227C11.1988 15.7227 10.4461 15.4093 9.87828 14.8442C9.59924 14.5659 9.37796 14.2352 9.22718 13.8712C9.07641 13.5071 8.9991 13.1168 8.99971 12.7227C8.99971 11.9218 9.31311 11.1692 9.87828 10.6013C10.4461 10.0334 11.1988 9.72273 11.9997 9.72273C12.8006 9.72273 13.5533 10.0334 14.1211 10.6013C14.4002 10.8795 14.6215 11.2102 14.7722 11.5743C14.923 11.9384 15.0003 12.3287 14.9997 12.7227C14.9997 13.5236 14.6863 14.2763 14.1211 14.8442Z" fill="black" fill-opacity="0.45"/>
</g>
<defs>
<clipPath id="clip0_354_466">
<rect width="24" height="24" fill="white" transform="translate(0 0.986572)"/>
</clipPath>
</defs>
</svg>
